<svg width="256" height="291" viewBox="0 0 256 291" fill="none" xmlns="http://www.w3.org/2000/svg">
<path d="M223.736 56.561C223.535 55.101 222.256 54.293 221.199 54.204C220.144 54.116 197.816 52.461 197.816 52.461C197.816 52.461 182.309 37.066 180.607 35.362C178.904 33.659 175.578 34.177 174.287 34.557C174.097 34.613 170.899 35.6 165.609 37.237C160.429 22.331 151.287 8.633 135.204 8.633C134.76 8.633 134.303 8.651 133.846 8.677C129.272 2.628 123.606 0 118.712 0C81.247 0 63.348 46.835 57.736 70.635C43.178 75.146 32.836 78.353 31.515 78.768C23.389 81.317 23.132 81.573 22.065 89.23C21.262 95.027 0 259.456 0 259.456L165.678 290.498L255.448 271.078C255.448 271.078 223.935 58.021 223.737 56.561H223.736ZM156.452 40.069L142.433 44.408C142.438 43.42 142.443 42.448 142.443 41.385C142.443 32.121 141.157 24.662 139.094 18.749C147.381 19.789 152.9 29.218 156.452 40.069ZM128.814 20.586C131.118 26.359 132.616 34.644 132.616 45.824C132.616 46.396 132.611 46.919 132.606 47.448C123.489 50.272 113.582 53.338 103.653 56.414C109.228 34.898 119.678 24.506 128.814 20.586ZM117.683 10.049C119.3 10.049 120.929 10.598 122.488 11.671C110.481 17.321 97.611 31.551 92.176 59.968L69.29 67.056C75.656 45.381 90.772 10.049 117.682 10.049H117.683Z" fill="#29B2ED"/>
<path d="M221.201 54.2037C220.146 54.1157 197.817 52.4607 197.817 52.4607C197.817 52.4607 182.31 37.0657 180.608 35.3617C179.971 34.7277 179.112 34.4027 178.214 34.2627L165.688 290.496L255.449 271.078C255.449 271.078 223.936 58.0207 223.738 56.5607C223.537 55.1007 222.258 54.2927 221.201 54.2037Z" fill="#0980B3"/>
<path d="M135.205 103.806L124.136 136.732C124.136 136.732 114.438 131.556 102.55 131.556C85.1216 131.556 84.2446 142.493 84.2446 145.249C84.2446 160.287 123.445 166.049 123.445 201.273C123.445 228.986 105.868 246.831 82.1676 246.831C53.7276 246.831 39.1836 229.131 39.1836 229.131L46.7986 203.971C46.7986 203.971 61.7486 216.806 74.3636 216.806C82.6066 216.806 85.9596 210.316 85.9596 205.574C85.9596 185.958 53.7996 185.083 53.7996 152.85C53.7996 125.721 73.2716 99.4678 112.578 99.4678C127.723 99.4678 135.205 103.806 135.205 103.806Z" fill="#E03600"/>
</svg>
